<svg width="32" height="33" viewBox="0 0 32 33" fill="none" xmlns="http://www.w3.org/2000/svg">
<g id="dashboard_logo-removebg-preview 3 (traced)">
<g id="Black">
<path id="Vector" d="M14.6909 2.61434C14.6028 2.70244 14.5367 3.05482 14.5367 3.4072C14.5367 3.80363 14.4266 4.02387 14.2063 4.02387C13.9861 4.02387 13.876 4.24411 13.876 4.66256C13.876 5.45542 13.5897 5.67565 12.995 5.3453C12.5546 5.12506 12.5546 5.14708 12.6867 6.31434C12.8188 7.41553 12.7968 7.52565 12.2682 7.87803C11.8278 8.16434 11.6075 8.18637 11.2551 8.01018C11.0129 7.87803 10.5504 7.76792 10.2421 7.76792C9.75753 7.76792 9.66943 7.83399 9.8236 8.14232C9.93372 8.36256 9.99979 9.00125 9.99979 9.57387C9.97776 10.4328 10.0659 10.653 10.4182 10.7632C11.0129 10.9614 12.5546 12.3709 12.5546 12.7453C12.5546 13.2298 12.2462 13.1197 11.4093 12.3048C10.8367 11.7322 10.5063 11.578 10.0879 11.6661C9.69146 11.7322 9.22896 11.578 8.67836 11.2036C8.23788 10.8953 7.77538 10.6971 7.68729 10.7632C7.59919 10.8072 7.66526 11.2036 7.84146 11.6441C8.03967 12.1066 8.10574 12.7012 8.03967 13.1417C7.90753 13.7584 7.9736 13.9126 8.45812 14.2429C9.09681 14.6614 9.18491 15.1679 8.70038 15.8507C8.28193 16.4453 8.56824 16.6876 9.86765 16.9078C11.101 17.106 12.8629 18.2953 12.951 18.956C13.0171 19.4626 12.973 19.4846 11.8498 19.4185C11.2111 19.3965 10.5284 19.4405 10.3081 19.5286C10.1099 19.6167 9.58134 19.5947 9.09681 19.4626C8.01765 19.1542 7.92955 19.1542 7.92955 19.5286C7.92955 19.7048 8.25991 20.0572 8.65634 20.2995C10.0659 21.2245 10.22 21.3786 9.93372 21.731C9.58134 22.1495 9.80157 22.2596 11.3873 22.5459C12.6867 22.7882 13.876 23.2947 13.876 23.581C13.876 23.6691 13.3694 23.9114 12.7528 24.1316C11.5415 24.5721 11.4534 24.9465 12.4665 25.2108C12.8188 25.2989 13.4796 25.5852 13.9421 25.8274C14.4266 26.1137 14.9331 26.2459 15.1974 26.1578C15.5938 26.0257 15.6159 26.1578 15.6819 28.4483C15.77 31.6417 16.1665 31.7739 16.2546 28.6465C16.3206 26.0477 16.4307 25.8715 18.0825 25.431C18.6111 25.2989 18.8313 25.1227 18.8313 24.8143C18.8313 24.506 19.0736 24.3298 19.8004 24.1536C20.5932 23.9774 20.8135 23.8012 20.9456 23.3387C21.1438 22.5679 20.9456 22.4798 19.2498 22.4798C18.1926 22.4578 17.8403 22.3917 17.8403 22.1715C17.8403 21.753 18.7653 21.4227 19.9546 21.4227C21.298 21.4227 21.8926 21.0923 21.5843 20.5417C21.2319 19.859 21.32 19.6608 22.1349 19.3084C22.5754 19.1322 22.9938 18.8239 23.0599 18.6036C23.126 18.4054 23.3462 18.053 23.5004 17.8548C24.073 17.1941 23.6105 16.9959 22.6415 17.4804C22.0909 17.7667 21.6724 17.8548 21.5403 17.7227C21.4081 17.5905 21.0337 17.6346 20.5272 17.8108C18.8534 18.4054 17.9504 18.053 18.479 17.0399C18.8754 16.3352 19.9766 15.6745 21.0998 15.5203C21.9367 15.3882 22.1349 15.278 22.1569 14.9036C22.179 14.6614 22.3772 14.1768 22.5974 13.8245C22.8176 13.4721 23.0159 12.8995 23.0159 12.5251C23.0379 12.1507 23.0819 11.6882 23.148 11.512C23.2141 11.2917 23.104 11.2036 22.7956 11.2477C22.5534 11.2917 22.0468 11.3578 21.6504 11.4018C21.254 11.4459 20.6813 11.6661 20.351 11.9304C19.0736 12.9435 18.7653 12.4149 19.3819 10.3447C20.3069 7.30542 20.5051 6.38042 20.2629 6.13815C20.1307 6.00601 19.8665 6.09411 19.4921 6.44649C19.0736 6.84292 18.9635 6.88696 19.0736 6.60065C19.2718 6.07208 18.6772 6.11613 18.1706 6.66673C17.9504 6.90899 17.6421 7.1072 17.4879 7.1072C17.0694 7.1072 16.8492 6.07208 17.1575 5.43339C17.4659 4.75065 17.2676 4.3322 16.8272 4.70661C16.4307 5.03696 16.1444 4.77268 16.0343 4.02387C15.9903 3.71553 15.8361 3.4953 15.6819 3.51732C15.5498 3.56137 15.4176 3.4953 15.4176 3.4072C15.4176 3.07684 14.845 2.46018 14.6909 2.61434Z" fill="#9098C1"/>
</g>
</g>
</svg>
